{"title":"Citizenfour.2014.DOCU.720p.BluRay.x264-WiKi","uid":12112876,"size":4852254455,"categoryP":"video","categoryS":"hd___movies","magnet":"?xt=urn:btih:31e8d23628a655d92894288d6c66ddf804364d60&amp;dn=Citizenfour.2014.DOCU.720p.BluRay.x264-WiKi&amp;tr=udp%3A%2F%2Ftracker.openbittorrent.com%3A80&amp;tr=udp%3A%2F%2Fopen.demonii.com%3A1337&amp;tr=udp%3A%2F%2Ftracker.coppersurfer.tk%3A6969&amp;tr=udp%3A%2F%2Fexodus.desync.com%3A6969","seeders":15,"leechers":2,"uploader":null,"files":4,"time":1436620214,"description":"Video\nID                                       : 1\nFormat                                   : AVC\nFormat/Info                              : Advanced Video Codec\nFormat profile                           : &lt;a class=&quot;__cf_email__&quot; href=&quot;/cdn-cgi/l/email-protection&quot; data-cfemail=&quot;c48cada3ac8488f0eaf5&quot;&gt;[email&amp;#160;protected]&lt;/a&gt;&lt;script data-cfhash='f9e31' type=&quot;text/javascript&quot;&gt;\n/* &lt;![CDATA[ */!function(){try{var t=&quot;currentScript&quot;in document?document.currentScript:function(){for(var t=document.getElementsByTagName(&quot;script&quot;),e=t.length;e--;)if(t[e].getAttribute(&quot;data-cfhash&quot;))return t[e]}();if(t&amp;&amp;t.previousSibling){var e,r,n,i,c=t.previousSibling,a=c.getAttribute(&quot;data-cfemail&quot;);if(a){for(e=&quot;&quot;,r=parseInt(a.substr(0,2),16),n=2;a.length-n;n+=2)i=parseInt(a.substr(n,2),16)^r,e+=String.fromCharCode(i);e=document.createTextNode(e),c.parentNode.replaceChild(e,c)}t.parentNode.removeChild(t);}}catch(u){}}()/* ]]&gt; */&lt;/script&gt;\nFormat settings, CABAC                   : Yes\nFormat settings, ReFrames                : 9 frames\nCodec ID                                 : V_MPEG4/ISO/AVC\nDuration                                 : 1h 53mn\nBit rate                                 : 5 000 Kbps\nWidth                                    : 1 280 pixels\nHeight                                   : 720 pixels\nDisplay aspect ratio                     : 16:9\nFrame rate mode                          : Constant\nFrame rate                               : 24.000 fps\nColor space                              : YUV\nChroma subsampling                       : 4:2:0\nBit depth                                : 8 bits\nScan type                                : Progressive\nBits/(Pixel*Frame)                       : 0.226\nStream size                              : 3.87 GiB (87%)\nWriting library                          : x264 core 142 r2479 dd79a61\nEncoding settings                        : cabac=1 / ref=9 / deblock=1:-3:-3 / analyse=0x3:0x133 / me=umh / subme=11 / psy=1 / psy_rd=1.00:0.10 / mixed_ref=1 / me_range=32 / chroma_me=1 / trellis=2 / 8x8dct=1 / cqm=0 / deadzone=21,11 / fast_pskip=0 / chroma_qp_offset=-3 / threads=12 / lookahead_threads=2 / sliced_threads=0 / nr=0 / decimate=0 / interlaced=0 / bluray_compat=0 / constrained_intra=0 / bframes=8 / b_pyramid=2 / b_adapt=2 / b_bias=0 / direct=3 / weightb=1 / open_gop=0 / weightp=2 / keyint=250 / keyint_min=24 / scenecut=40 / intra_refresh=0 / rc_lookahead=80 / rc=2pass / mbtree=1 / bitrate=5000 / ratetol=1.0 / qcomp=0.70 / qpmin=0 / qpmax=69 / qpstep=4 / cplxblur=20.0 / qblur=0.5 / ip_ratio=1.40 / aq=1:0.80\nLanguage                                 : English\nDefault                                  : Yes\nForced                                   : No\nDURATION                                 : 01:53:25.167000000\nNUMBER_OF_FRAMES                         : 163324\nNUMBER_OF_BYTES                          : 4252137108\n_STATISTICS_WRITING_APP                  : mkvmerge v7.0.0 ('Where We Going') 32bit built on Jun  9 2014 15:08:34\n_STATISTICS_WRITING_DATE_UTC             : 2015-07-10 07:40:40\n_STATISTICS_TAGS                         : BPS DURATION NUMBER_OF_FRAMES NUMBER_OF_BYTES\n\nAudio\nID                                       : 2\nFormat                                   : AC-3\nFormat/Info                              : Audio Coding 3\nMode extension                           : CM (complete main)\nFormat settings, Endianness              : Big\nCodec ID                                 : A_AC3\nDuration                                 : 1h 53mn\nBit rate mode                            : Constant\nBit rate                                 : 640 Kbps\nChannel(s)                               : 6 channels\nChannel positions                        : Front: L C R, Side: L R, LFE\nSampling rate                            : 48.0 KHz\nBit depth                                : 16 bits\nCompression mode                         : Lossy\nStream size                              : 519 MiB (11%)\nTitle                                    : English\nLanguage                                 : English\nDefault                                  : Yes\nForced                                   : No\n\nMenu\n00:00:00.000                             : en:00:00:00.000\n00:04:13.417                             : en:00:04:13.417\n00:08:43.958                             : en:00:08:43.958\n00:12:07.833                             : en:00:12:07.833\n00:15:58.583                             : en:00:15:58.583\n00:20:01.375                             : en:00:20:01.375\n00:27:39.833                             : en:00:27:39.833\n00:35:20.625                             : en:00:35:20.625\n00:45:50.417                             : en:00:45:50.417\n00:52:33.417                             : en:00:52:33.417\n01:01:33.375                             : en:01:01:33.375\n01:06:12.917                             : en:01:06:12.917\n01:08:36.667                             : en:01:08:36.667\n01:15:28.958                             : en:01:15:28.958\n01:21:07.833                             : en:01:21:07.833\n01:25:25.458                             : en:01:25:25.458\n01:26:35.083                             : en:01:26:35.083\n01:29:57.583                             : en:01:29:57.583\n01:33:25.083                             : en:01:33:25.083\n01:36:04.833                             : en:01:36:04.833\n01:39:46.333                             : en:01:39:46.333\n01:44:51.042                             : en:01:44:51.042\n01:50:14.000                             : en:01:50:14.000","torrent":{"xt":"urn:btih:31e8d23628a655d92894288d6c66ddf804364d60","amp;dn":"Citizenfour.2014.DOCU.720p.BluRay.x264-WiKi","amp;tr":["udp%3A%2F%2Ftracker.openbittorrent.com%3A80","udp%3A%2F%2Fopen.demonii.com%3A1337","udp%3A%2F%2Ftracker.coppersurfer.tk%3A6969","udp%3A%2F%2Fexodus.desync.com%3A6969"],"infoHash":"31e8d23628a655d92894288d6c66ddf804364d60","infoHashBuffer":{"type":"Buffer","data":[49,232,210,54,40,166,85,217,40,148,40,141,108,102,221,248,4,54,77,96]},"announce":[],"urlList":[]}}